<svg width="28" height="24" viewBox="0 0 28 24" fill="none" xmlns="http://www.w3.org/2000/svg">
  <path d="M13.9998 4H14.7498C14.7498 3.72564 14.6 3.47317 14.3592 3.34171C14.1183 3.21024 13.825 3.22076 13.5942 3.36913L13.9998 4ZM13.9998 20L13.5942 20.6309C13.825 20.7792 14.1183 20.7898 14.3592 20.6583C14.6 20.5268 14.7498 20.2744 14.7498 20H13.9998ZM2.00049 8.5V7.75C1.58627 7.75 1.25049 8.08579 1.25049 8.5H2.00049ZM2.00049 15.5H1.25049C1.25049 15.9142 1.58627 16.25 2.00049 16.25V15.5ZM7.00049 8.5V9.25H7.22078L7.40609 9.13087L7.00049 8.5ZM7.00049 15.5L7.40609 14.8691L7.22078 14.75H7.00049V15.5ZM13.2498 4V20H14.7498V4H13.2498ZM1.25049 8.5V15.5H2.75049V8.5H1.25049ZM2.00049 9.25H7.00049V7.75H2.00049V9.25ZM2.00049 16.25H7.00049V14.75H2.00049V16.25ZM7.40609 9.13087L14.4054 4.63087L13.5942 3.36913L6.59489 7.86913L7.40609 9.13087ZM6.59489 16.1309L13.5942 20.6309L14.4054 19.3691L7.40609 14.8691L6.59489 16.1309Z" fill="#141B34"/>
  <path d="M17 10C17.4167 10.5446 17.6667 11.2382 17.6667 12C17.6667 12.7618 17.4167 13.4554 17 14" stroke="#141B34" stroke-width="1.5" stroke-linejoin="round"/>
  <path d="M19.5 8C20.4169 9.03065 21 10.4479 21 12C21 13.5521 20.4169 14.9693 19.5 16" stroke="#141B34" stroke-width="1.5" stroke-linejoin="round"/>
  <path d="M22.5 5.5C24.2 7.8 25 9.8 25 12C25 14.2 24.2 16.2 22.5 18.5" stroke="#141B34" stroke-width="1.5" stroke-linejoin="round"/>
</svg>